<?xml version="1.0" encoding="UTF-8" standalone="no"?>
<svg
   xmlns:dc="http://purl.org/dc/elements/1.1/"
   xmlns:cc="http://creativecommons.org/ns#"
   xmlns:rdf="http://www.w3.org/1999/02/22-rdf-syntax-ns#"
   xmlns:svg="http://www.w3.org/2000/svg"
   xmlns="http://www.w3.org/2000/svg"
   xmlns:sodipodi="http://sodipodi.sourceforge.net/DTD/sodipodi-0.dtd"
   xmlns:inkscape="http://www.inkscape.org/namespaces/inkscape"
   width="37.534924mm"
   height="40.313004mm"
   viewBox="0 0 37.534924 40.313004"
   version="1.1"
   id="svg890"
   inkscape:version="1.0.2 (e86c8708, 2021-01-15)"
   sodipodi:docname="nube.svg">
  <defs
     id="defs884" />
  <sodipodi:namedview
     id="base"
     pagecolor="#ffffff"
     bordercolor="#666666"
     borderopacity="1.0"
     inkscape:pageopacity="0.0"
     inkscape:pageshadow="2"
     inkscape:zoom="0.35"
     inkscape:cx="353.78928"
     inkscape:cy="513.32496"
     inkscape:document-units="mm"
     inkscape:current-layer="layer1"
     inkscape:document-rotation="0"
     showgrid="false"
     inkscape:window-width="1251"
     inkscape:window-height="979"
     inkscape:window-x="0"
     inkscape:window-y="23"
     inkscape:window-maximized="0" />
  <metadata
     id="metadata887">
    <rdf:RDF>
      <cc:Work
         rdf:about="">
        <dc:format>image/svg+xml</dc:format>
        <dc:type
           rdf:resource="http://purl.org/dc/dcmitype/StillImage" />
        <dc:title></dc:title>
      </cc:Work>
    </rdf:RDF>
  </metadata>
  <g
     inkscape:label="Capa 1"
     inkscape:groupmode="layer"
     id="layer1"
     transform="translate(-12.226586,-12.349437)">
    <path
       d="m 25.86226,51.736041 c 0,0.54151 -0.279471,0.9264 -0.901242,0.9264 -0.634718,0 -0.90551,-0.38489 -0.90551,-0.9264 v -2.00131 h 0.148167 v 1.98826 c 0,0.47836 0.219921,0.80433 0.757343,0.80433 0.537316,0 0.748842,-0.33443 0.748842,-0.80433 v -1.98826 h 0.1524 v 2.00131"
       style="fill:#ffffff;fill-opacity:1;fill-rule:nonzero;stroke:none;stroke-width:0.0352778"
       id="path304" />
    <path
       d="m 27.433356,51.316941 c 0.516219,0 0.884308,-0.17321 0.884308,-0.73625 0,-0.52881 -0.313091,-0.71472 -0.875736,-0.71472 h -0.469653 v 1.45097 z m 0.0086,-1.58221 c 0.655673,0 1.032263,0.24977 1.032263,0.84173 0,0.63923 -0.435857,0.87595 -1.0535,0.87595 h -0.448416 v 1.16769 h -0.148131 v -2.88537 h 0.617784"
       style="fill:#ffffff;fill-opacity:1;fill-rule:nonzero;stroke:none;stroke-width:0.0352778"
       id="path306" />
    <path
       d="m 30.570044,52.480751 -0.02547,0.13935 h -1.341262 v -2.88537 h 0.148167 v 2.74602 h 1.218565"
       style="fill:#ffffff;fill-opacity:1;fill-rule:nonzero;stroke:none;stroke-width:0.0352778"
       id="path308" />
    <path
       d="m 31.061746,51.186061 c 0,0.88406 0.410386,1.34126 0.994269,1.34126 0.617749,0 0.994233,-0.4572 0.994233,-1.34585 0,-0.90946 -0.397686,-1.35396 -0.994233,-1.35396 -0.58801,0 -0.994269,0.45262 -0.994269,1.35855 z m 2.140902,-0.005 c 0,0.93945 -0.439984,1.48097 -1.146633,1.48097 -0.681179,0 -1.146528,-0.52459 -1.146528,-1.47638 0,-0.95638 0.469618,-1.49789 1.146528,-1.49789 0.685412,0 1.146633,0.51611 1.146633,1.4933"
       style="fill:#ffffff;fill-opacity:1;fill-rule:nonzero;stroke:none;stroke-width:0.0352778"
       id="path310" />
    <path
       d="m 34.570791,49.853271 -0.604978,1.7981 h 1.205794 z m -0.651686,1.93357 -0.279188,0.83326 h -0.148132 l 0.990106,-2.88537 h 0.181893 l 0.990141,2.88537 h -0.156563 l -0.279329,-0.83326 h -1.298928"
       style="fill:#ffffff;fill-opacity:1;fill-rule:nonzero;stroke:none;stroke-width:0.0352778"
       id="path312" />
    <path
       d="m 36.408411,52.484991 h 0.423051 c 0.533153,0 1.095798,-0.2413 1.095798,-1.33738 0,-1.1169 -0.583882,-1.27776 -1.125431,-1.27776 h -0.393418 z m 0.401814,-2.75026 c 0.62618,0 1.273598,0.23284 1.273598,1.41288 0,1.21461 -0.685447,1.47249 -1.25663,1.47249 h -0.566949 v -2.88537 h 0.549981"
       style="fill:#ffffff;fill-opacity:1;fill-rule:nonzero;stroke:none;stroke-width:0.0352778"
       id="path314" />
    <path
       d="m 12.750638,45.935669 c -0.289384,0 -0.524052,-0.234597 -0.524052,-0.523875 V 33.60926 c 0,-0.289278 0.234668,-0.523875 0.524052,-0.523875 h 9.023139 c 0.289524,0 0.524051,0.234597 0.524051,0.523875 v 11.802534 c 0,0.289278 -0.234527,0.523875 -0.524051,0.523875 h -9.023139"
       style="fill:#ffffff;fill-opacity:1;fill-rule:nonzero;stroke:none;stroke-width:0.0352778"
       id="path316" />
    <path
       d="M 12.895629,44.527027 V 33.766952 h 8.733156 v 10.760075 h -8.733156"
       style="fill:#8dccdb;fill-opacity:1;fill-rule:nonzero;stroke:none;stroke-width:0.0352778"
       id="path318" />
    <path
       d="M 12.895629,44.527027 21.628785,33.766952 V 44.527027 Z"
       style="fill:#456785;fill-opacity:1;fill-rule:nonzero;stroke:none;stroke-width:0.0352778"
       id="path320" />
    <path
       d="M 17.639115,45.743052 H 16.88544 c -0.06766,0 -0.122343,-0.05468 -0.122343,-0.122413 v -0.753534 c 0,-0.06738 0.05468,-0.122414 0.122343,-0.122414 h 0.753675 c 0.06752,0 0.122202,0.05503 0.122202,0.122414 v 0.753534 c 0,0.06773 -0.05468,0.122413 -0.122202,0.122413"
       style="fill:#456785;fill-opacity:1;fill-rule:nonzero;stroke:none;stroke-width:0.0352778"
       id="path322" />
    <path
       d="m 16.946647,45.559608 v -0.631472 h 0.63112 v 0.631472 h -0.63112"
       style="fill:#ffffff;fill-opacity:1;fill-rule:nonzero;stroke:none;stroke-width:0.0352778"
       id="path324" />
    <path
       d="M 49.357579,42.537713 H 38.177803 c -0.222955,0 -0.403648,-0.180622 -0.403648,-0.403577 v -8.645173 c 0,-0.222956 0.180693,-0.403578 0.403648,-0.403578 h 11.179776 c 0.223308,0 0.40393,0.180622 0.40393,0.403578 v 8.645173 c 0,0.222955 -0.180622,0.403577 -0.40393,0.403577"
       style="fill:#ffffff;fill-opacity:1;fill-rule:nonzero;stroke:none;stroke-width:0.0352778"
       id="path326" />
    <path
       d="m 38.736744,41.160469 -0.01602,-0.01588 v -7.265812 l 0.01602,-0.01587 h 10.062387 l 0.01552,0.01587 v 7.265812 l -0.01552,0.01588 H 38.736744"
       style="fill:#8dccdb;fill-opacity:1;fill-rule:nonzero;stroke:none;stroke-width:0.0352778"
       id="path328" />
    <path
       d="m 38.736744,41.160469 -0.01602,-0.01588 10.078403,-7.281687 0.01552,0.01587 v 7.265812 l -0.01552,0.01588 H 38.736744"
       style="fill:#456785;fill-opacity:1;fill-rule:nonzero;stroke:none;stroke-width:0.0352778"
       id="path330" />
    <path
       d="m 44.817328,42.537713 h -2.09938 c 0,0.66287 -0.51435,1.035756 -1.546931,1.22555 h 2.596797 2.596798 c -1.032581,-0.189794 -1.547284,-0.56268 -1.547284,-1.22555"
       style="fill:#8dccdb;fill-opacity:1;fill-rule:nonzero;stroke:none;stroke-width:0.0352778"
       id="path332" />
    <path
       d="m 47.552415,44.177777 c 0,-0.228952 -0.185562,-0.414514 -0.414514,-0.414514 h -6.740173 c -0.228953,0 -0.414514,0.185562 -0.414514,0.414514 h 7.569201"
       style="fill:#ffffff;fill-opacity:1;fill-rule:nonzero;stroke:none;stroke-width:0.0352778"
       id="path334" />
    <path
       d="m 37.281536,19.294242 c 0.03002,-0.185208 0.04988,-0.374297 0.04988,-0.567972 0,-1.946628 -1.57787,-3.524603 -3.524356,-3.524603 l -0.05401,0.0028 c -0.897784,-1.697214 -2.679171,-2.85503 -4.732867,-2.85503 -2.956595,0 -5.353403,2.396772 -5.353403,5.353403 0,0.115358 0.01005,0.2286 0.01722,0.342194 -1.353785,0.491773 -2.322689,1.786114 -2.322689,3.309762 0,1.946628 1.577869,3.524603 3.524356,3.524603 h 10.793872 c 1.67005,0 3.023835,-1.353962 3.023835,-3.024012 0,-1.080911 -0.568996,-2.026355 -1.421836,-2.561167"
       style="fill:#ffffff;fill-opacity:1;fill-rule:nonzero;stroke:none;stroke-width:0.0352778"
       id="path336" />
    <path
       d="m 24.885665,24.879068 h 10.793872 c 1.67005,0 3.023835,-1.353609 3.023835,-3.023659 0,-1.080911 -0.568996,-2.026355 -1.421836,-2.561167 0.03002,-0.185208 0.04988,-0.374297 0.04988,-0.567972 0,-1.946628 -1.57787,-3.524603 -3.524356,-3.524603 l -0.05401,0.0028 -0.0043,-0.0071 -9.602436,9.602964 c 0.238513,0.0508 0.485458,0.07867 0.739317,0.07867"
       style="fill:#8dccdb;fill-opacity:1;fill-rule:nonzero;stroke:none;stroke-width:0.0352778"
       id="path338" />
    <path
       d="m 33.552816,28.065357 -3.520476,-2.760839 -3.520475,2.760839 h 1.002241 v 2.896658 h 5.036327 v -2.896658 h 1.002383"
       style="fill:#ffca00;fill-opacity:1;fill-rule:nonzero;stroke:none;stroke-width:0.0352778"
       id="path340" />
    <path
       d="m 34.705694,39.80933 c 0,0.181328 -0.147038,0.328436 -0.328401,0.328436 h -8.690046 c -0.181187,0 -0.328225,-0.147108 -0.328225,-0.328436 v -6.395862 c 0,-0.181327 0.147038,-0.328083 0.328225,-0.328083 h 8.690046 c 0.181363,0 0.328401,0.146756 0.328401,0.328083 v 6.395862"
       style="fill:#ffffff;fill-opacity:1;fill-rule:nonzero;stroke:none;stroke-width:0.0352778"
       id="path342" />
    <path
       d="m 34.225598,39.132702 h -8.386481 v -5.605286 h 8.386481 v 5.605286"
       style="fill:#8dccdb;fill-opacity:1;fill-rule:nonzero;stroke:none;stroke-width:0.0352778"
       id="path344" />
    <path
       d="m 34.225598,39.132702 h -8.386481 l 8.386481,-5.605286 z"
       style="fill:#456785;fill-opacity:1;fill-rule:nonzero;stroke:none;stroke-width:0.0352778"
       id="path346" />
    <path
       d="m 24.606723,40.317683 v 0.179564 c 0,0.210608 0.170604,0.381 0.381036,0.381 H 35.07678 c 0.210432,0 0.381036,-0.170392 0.381036,-0.381 V 40.317683 H 24.606723"
       style="fill:#ffffff;fill-opacity:1;fill-rule:nonzero;stroke:none;stroke-width:0.0352778"
       id="path348" />
    <path
       d="m 47.62297,25.243487 v -1.879953 h 1.880659 v 1.879953 z m 1.880659,1.905353 H 47.62297 v -1.880305 h 1.880659 z m 0,1.905353 H 47.62297 v -1.880658 h 1.880659 z m 0,1.905353 H 47.62297 v -1.880658 h 1.880659 z m -1.905353,0 h -1.881012 v -1.880658 h 1.881012 z m -1.905706,0 h -1.879953 v -1.880658 h 1.879953 z m -1.904647,0 h -1.881012 v -1.880658 h 1.881012 z m -1.905706,0 h -1.879953 v -1.880658 h 1.879953 z m -1.879953,-3.786011 h 1.879953 v 1.880658 h -1.879953 z m 0,-1.905 h 1.879953 v 1.880305 h -1.879953 z m 0,-1.905001 h 1.879953 v 1.879953 h -1.879953 z m 1.904647,0 h 1.881012 v 1.879953 h -1.881012 z m 1.905706,0 h 1.879953 v 1.879953 h -1.879953 z m 0,3.810001 h 1.879953 v 1.880658 h -1.879953 z m 1.879953,-0.02469 H 43.812617 V 25.26854 H 45.69257 Z M 41.906911,25.26854 h 1.881012 v 1.880305 h -1.881012 z m 0,1.905 h 1.881012 v 1.880658 h -1.881012 z m 5.691365,1.880658 H 45.717264 V 27.17354 h 1.881012 z m 0,-1.905353 H 45.717264 V 25.26854 h 1.881012 z m -1.881012,-3.785306 h 1.881012 v 1.879953 h -1.881012 z m 1.905706,-0.02505 h -7.645753 v 7.645401 h 9.550401 v -1.905 -0.0247 -1.880658 -0.02469 -1.880305 -0.02505 -1.905 H 47.62297"
       style="fill:#ffffff;fill-opacity:1;fill-rule:nonzero;stroke:none;stroke-width:0.0352778"
       id="path350" />
    <path
       d="m 49.206237,24.219726 c -0.125236,0 -0.227189,0.101953 -0.227189,0.227542 0,0.07796 0.04198,0.14358 0.101953,0.184503 l -1.188509,3.621969 -0.0095,-0.0018 c -0.03563,0 -0.06844,0.01058 -0.09913,0.0254 l -1.385711,-1.537052 c 0.02187,-0.03493 0.03739,-0.07373 0.03739,-0.118181 0,-0.125589 -0.101247,-0.227189 -0.227542,-0.227189 -0.125236,0 -0.227189,0.1016 -0.227189,0.227189 0,0.102658 0.06844,0.185561 0.16122,0.214489 l -0.07373,3.796242 -0.697794,-1.347259 c 0.0441,-0.04127 0.07267,-0.09948 0.07267,-0.164747 0,-0.125942 -0.101953,-0.227542 -0.227189,-0.227542 -0.104069,0 -0.18803,0.07056 -0.2159,0.165806 h -0.97543 c -0.02716,-0.09525 -0.111125,-0.165806 -0.215548,-0.165806 -0.125236,0 -0.227189,0.1016 -0.227189,0.227542 l 0.01693,0.08608 -1.085497,0.849136 c -0.03775,-0.02681 -0.08114,-0.04586 -0.130881,-0.04586 -0.0448,0 -0.08431,0.01623 -0.119592,0.03845 l -0.937683,-0.830439 c 0.01376,-0.02999 0.02328,-0.06209 0.02328,-0.09737 0,-0.125942 -0.101953,-0.227542 -0.227189,-0.227542 -0.125589,0 -0.227541,0.1016 -0.227541,0.227542 0,0.05927 0.02399,0.112536 0.06138,0.153106 l -0.850195,1.389239 -0.05927,-0.01199 c -0.125589,0 -0.227895,0.1016 -0.227895,0.227189 0,0.125942 0.102306,0.227895 0.227895,0.227895 0.125589,0 0.227894,-0.101953 0.227894,-0.227895 0,-0.05962 -0.02434,-0.112536 -0.06209,-0.153105 l 0.850195,-1.388887 0.05962,0.01199 c 0.0448,0 0.08431,-0.01623 0.119239,-0.03881 L 42.178556,30.14 c -0.01376,0.02999 -0.02328,0.06244 -0.02328,0.09772 0,0.125236 0.100894,0.227189 0.227189,0.227189 0.125589,0 0.227542,-0.101953 0.227542,-0.227189 l -0.01729,-0.08572 1.08585,-0.849842 c 0.03739,0.02716 0.08114,0.04621 0.130527,0.04621 0.104423,0 0.188384,-0.07091 0.215548,-0.165453 h 0.975783 c 0.02752,0.09454 0.111478,0.165453 0.215547,0.165453 l 0.04269,-0.0085 0.711906,1.373717 c -0.0441,0.04163 -0.07232,0.09948 -0.07232,0.164747 0,0.125942 0.101601,0.227895 0.227542,0.227895 0.125589,0 0.227189,-0.101953 0.227189,-0.227895 0,-0.102305 -0.06809,-0.185208 -0.160867,-0.213783 l 0.07373,-3.826228 0.04127,-0.01341 1.386417,1.5367 c -0.02152,0.03493 -0.03775,0.07408 -0.03775,0.118534 0,0.125589 0.101953,0.227189 0.227189,0.227189 0.126295,0 0.228248,-0.1016 0.228248,-0.227189 0,-0.07832 -0.04163,-0.143934 -0.101953,-0.184856 l 1.188508,-3.622322 0.0085,0.0021 c 0.126294,0 0.228247,-0.101953 0.228247,-0.227894 0,-0.125589 -0.101953,-0.227542 -0.228247,-0.227542"
       style="fill:#ffca00;fill-opacity:1;fill-rule:nonzero;stroke:none;stroke-width:0.0352778"
       id="path352" />
  </g>
</svg>
