<?xml version="1.0" encoding="UTF-8" standalone="no"?>
<svg
   xmlns:dc="http://purl.org/dc/elements/1.1/"
   xmlns:cc="http://creativecommons.org/ns#"
   xmlns:rdf="http://www.w3.org/1999/02/22-rdf-syntax-ns#"
   xmlns:svg="http://www.w3.org/2000/svg"
   xmlns="http://www.w3.org/2000/svg"
   xmlns:sodipodi="http://sodipodi.sourceforge.net/DTD/sodipodi-0.dtd"
   xmlns:inkscape="http://www.inkscape.org/namespaces/inkscape"
   width="35.842216mm"
   height="42.486744mm"
   viewBox="0 0 35.842216 42.486744"
   version="1.1"
   id="svg1174"
   inkscape:version="1.0.2 (e86c8708, 2021-01-15)"
   sodipodi:docname="venta.svg">
  <defs
     id="defs1168" />
  <sodipodi:namedview
     id="base"
     pagecolor="#ffffff"
     bordercolor="#666666"
     borderopacity="1.0"
     inkscape:pageopacity="0.0"
     inkscape:pageshadow="2"
     inkscape:zoom="0.35"
     inkscape:cx="276.3049"
     inkscape:cy="431.71839"
     inkscape:document-units="mm"
     inkscape:current-layer="layer1"
     inkscape:document-rotation="0"
     showgrid="false"
     inkscape:window-width="1251"
     inkscape:window-height="979"
     inkscape:window-x="0"
     inkscape:window-y="23"
     inkscape:window-maximized="0" />
  <metadata
     id="metadata1171">
    <rdf:RDF>
      <cc:Work
         rdf:about="">
        <dc:format>image/svg+xml</dc:format>
        <dc:type
           rdf:resource="http://purl.org/dc/dcmitype/StillImage" />
        <dc:title></dc:title>
      </cc:Work>
    </rdf:RDF>
  </metadata>
  <g
     inkscape:label="Capa 1"
     inkscape:groupmode="layer"
     id="layer1"
     transform="translate(-32.727662,-33.941177)">
    <path
       d="m 39.393257,73.635333 v 1.168047 h 1.061897 v 0.131233 h -1.061897 v 1.315509 h 1.273422 v 0.135467 h -1.421588 v -2.885723 h 1.396259 l -0.0211,0.135467 h -1.226997"
       style="fill:#ffffff;fill-opacity:1;fill-rule:nonzero;stroke:none;stroke-width:0.0352778"
       id="path426" />
    <path
       d="m 42.216291,74.993527 v 0.135467 h -1.061932 v -0.135467 h 1.061932"
       style="fill:#ffffff;fill-opacity:1;fill-rule:nonzero;stroke:none;stroke-width:0.0352778"
       id="path428" />
    <path
       d="m 44.688205,73.7073 -0.08047,0.105833 C 44.408876,73.660733 44.256758,73.593 43.998525,73.593 c -0.549981,0 -1.002666,0.3937 -1.002666,1.349727 0,0.905581 0.439844,1.345848 0.985697,1.345848 0.317359,0 0.482318,-0.1016 0.655814,-0.245886 l 0.0846,0.105833 c -0.181892,0.160867 -0.410351,0.2794 -0.744679,0.2794 -0.647418,0 -1.133863,-0.516467 -1.133863,-1.485195 0,-0.998361 0.511951,-1.489075 1.146528,-1.489075 0.321663,0 0.511951,0.09737 0.698253,0.253648"
       style="fill:#ffffff;fill-opacity:1;fill-rule:nonzero;stroke:none;stroke-width:0.0352778"
       id="path430" />
    <path
       d="m 45.209822,74.951547 c 0,0.884061 0.41021,1.341261 0.994234,1.341261 0.617643,0 0.994269,-0.4572 0.994269,-1.345847 0,-0.909461 -0.397863,-1.353961 -0.994269,-1.353961 -0.588151,0 -0.994234,0.452613 -0.994234,1.358547 z m 2.140903,-0.0046 c 0,0.939447 -0.440161,1.480961 -1.146669,1.480961 -0.681284,0 -1.146528,-0.524581 -1.146528,-1.476375 0,-0.956381 0.469512,-1.497895 1.146528,-1.497895 0.685447,0 1.146669,0.515761 1.146669,1.493309"
       style="fill:#ffffff;fill-opacity:1;fill-rule:nonzero;stroke:none;stroke-width:0.0352778"
       id="path432" />
    <path
       d="M 50.402959,76.385589 50.246255,74.946961 C 50.19556,74.47318 50.136294,73.910147 50.115057,73.631452 l -0.803946,2.403123 h -0.139453 l -0.820737,-2.403123 c -0.01697,0.249414 -0.0805,0.824795 -0.127071,1.281642 l -0.143722,1.472495 h -0.143862 l 0.29598,-2.885723 h 0.220098 l 0.791104,2.356909 0.774348,-2.356909 h 0.22419 l 0.304835,2.885723 h -0.143862"
       style="fill:#ffffff;fill-opacity:1;fill-rule:nonzero;stroke:none;stroke-width:0.0352778"
       id="path434" />
    <path
       d="M 53.645622,76.385589 53.489059,74.946961 C 53.438223,74.47318 53.378957,73.910147 53.35772,73.631452 l -0.803946,2.403123 h -0.139453 l -0.820737,-2.403123 c -0.01711,0.249414 -0.0805,0.824795 -0.12693,1.281642 l -0.143863,1.472495 h -0.143862 l 0.296121,-2.885723 h 0.219957 l 0.791104,2.356909 0.774348,-2.356909 h 0.224331 l 0.304694,2.885723 h -0.143862"
       style="fill:#ffffff;fill-opacity:1;fill-rule:nonzero;stroke:none;stroke-width:0.0352778"
       id="path436" />
    <path
       d="m 54.760011,73.635333 v 1.168047 h 1.062073 v 0.131233 h -1.062073 v 1.315509 h 1.273599 v 0.135467 h -1.42173 v -2.885723 h 1.396365 l -0.0212,0.135467 h -1.227032"
       style="fill:#ffffff;fill-opacity:1;fill-rule:nonzero;stroke:none;stroke-width:0.0352778"
       id="path438" />
    <path
       d="m 57.396884,74.90498 c 0.499287,0 0.791281,-0.199319 0.791281,-0.643114 0,-0.4064 -0.224332,-0.630414 -0.833579,-0.630414 h -0.494841 v 1.273528 z m -0.537139,0.135467 v 1.345142 h -0.148132 v -2.885723 h 0.655814 c 0.676875,0 0.977301,0.270934 0.977301,0.762 0,0.448381 -0.262396,0.663928 -0.655814,0.752828 l 0.803945,1.370895 h -0.186161 l -0.774347,-1.345142 h -0.672606"
       style="fill:#ffffff;fill-opacity:1;fill-rule:nonzero;stroke:none;stroke-width:0.0352778"
       id="path440" />
    <path
       d="m 60.774626,73.7073 -0.08043,0.105833 C 60.495579,73.660733 60.343179,73.593 60.084945,73.593 c -0.549875,0 -1.002559,0.3937 -1.002559,1.349727 0,0.905581 0.439879,1.345848 0.985626,1.345848 0.3175,0 0.4826,-0.1016 0.655814,-0.245886 l 0.08467,0.105833 c -0.181681,0.160867 -0.410281,0.2794 -0.744714,0.2794 -0.647348,0 -1.133828,-0.516467 -1.133828,-1.485195 0,-0.998361 0.511951,-1.489075 1.146528,-1.489075 0.321733,0 0.51188,0.09737 0.698147,0.253648"
       style="fill:#ffffff;fill-opacity:1;fill-rule:nonzero;stroke:none;stroke-width:0.0352778"
       id="path442" />
    <path
       d="m 61.566965,73.635333 v 1.168047 h 1.062214 v 0.131233 h -1.062214 v 1.315509 h 1.273528 v 0.135467 h -1.421695 v -2.885723 h 1.396295 l -0.02117,0.135467 h -1.226961"
       style="fill:#ffffff;fill-opacity:1;fill-rule:nonzero;stroke:none;stroke-width:0.0352778"
       id="path444" />
    <path
       d="m 58.234732,64.801424 h -24.61807 c -0.490996,0 -0.889,-0.397933 -0.889,-0.889 V 44.876181 c 0,-0.491419 0.398004,-0.889353 0.889,-0.889353 h 24.61807 c 0.490996,0 0.889141,0.397934 0.889141,0.889353 v 19.036243 c 0,0.491067 -0.398145,0.889 -0.889141,0.889"
       style="fill:#456785;fill-opacity:1;fill-rule:nonzero;stroke:none;stroke-width:0.0352778"
       id="path446" />
    <path
       d="m 34.847221,61.768593 -0.03514,-0.03493 V 45.734137 l 0.03514,-0.03492 h 22.157092 l 0.03485,0.03492 v 15.999531 l -0.03485,0.03493 H 34.847221"
       style="fill:#ffffff;fill-opacity:1;fill-rule:nonzero;stroke:none;stroke-width:0.0352778"
       id="path448" />
    <path
       d="m 34.847221,61.768593 -0.03514,-0.03493 22.192228,-16.034456 0.03485,0.03492 v 15.999531 l -0.03485,0.03493 H 34.847221"
       style="fill:#8dccdb;fill-opacity:1;fill-rule:nonzero;stroke:none;stroke-width:0.0352778"
       id="path450" />
    <path
       d="m 48.23722,64.801424 h -4.622906 c 0,1.459442 -1.133016,2.280356 -3.406528,2.69875 h 5.717893 5.717928 C 49.370096,67.08178 48.23722,66.260866 48.23722,64.801424"
       style="fill:#293748;fill-opacity:1;fill-rule:nonzero;stroke:none;stroke-width:0.0352778"
       id="path452" />
    <path
       d="m 54.259384,68.412458 c 0,-0.503767 -0.408587,-0.912284 -0.91253,-0.912284 H 38.504539 c -0.503802,0 -0.912389,0.408517 -0.912389,0.912284 h 16.667234"
       style="fill:#456785;fill-opacity:1;fill-rule:nonzero;stroke:none;stroke-width:0.0352778"
       id="path454" />
    <path
       d="m 47.084484,55.234443 c 0.05994,0.07655 0.04646,0.186972 -0.03016,0.246944 l -3.91033,3.059289 c -0.07648,0.05962 -0.187149,0.04621 -0.247086,-0.03034 l -3.059112,-3.910189 c -0.05994,-0.07655 -0.04643,-0.187325 0.0302,-0.247297 l 3.910154,-3.058936 c 0.07662,-0.05997 0.18729,-0.04657 0.247227,0.02999 l 3.059113,3.910542"
       style="fill:#10deda;fill-opacity:1;fill-rule:nonzero;stroke:none;stroke-width:0.0352778"
       id="path456" />
    <path
       d="m 44.024842,51.323195 1.530032,1.9558 1.529892,1.955801 5.025002,-2.205567 -2.367315,-3.026128 -2.367457,-3.026128 -3.350154,4.346222"
       style="fill:#456785;fill-opacity:1;fill-rule:nonzero;stroke:none;stroke-width:0.0352778"
       id="path458" />
    <path
       d="m 52.225797,52.079551 c 0.230293,0.294217 0.178329,0.719314 -0.116029,0.949678 l -4.734525,-6.051903 c 0.294358,-0.230364 0.719631,-0.178506 0.94989,0.116064 l 3.900664,4.986161"
       style="fill:#10deda;fill-opacity:1;fill-rule:nonzero;stroke:none;stroke-width:0.0352778"
       id="path460" />
    <path
       d="m 41.008733,58.724826 c 0.105833,0.135467 0.301237,0.159103 0.436562,0.05362 l 1.030605,-0.80645 -2.21682,-2.833512 -1.030641,0.806098 c -0.135325,0.105833 -0.159173,0.301272 -0.05334,0.436738 l 1.833634,2.343503"
       style="fill:#ffca00;fill-opacity:1;fill-rule:nonzero;stroke:none;stroke-width:0.0352778"
       id="path462" />
    <path
       d="m 46.111452,56.218693 -2.152756,1.683808 3.504353,2.928762 c 0.112431,0.09419 0.275449,0.09666 0.390949,0.0063 l 1.651847,-1.292225 c 0.07401,-0.05786 0.117827,-0.146051 0.119344,-0.239889 0.0015,-0.09384 -0.03955,-0.183445 -0.111477,-0.243417 l -3.40226,-2.843389"
       style="fill:#456785;fill-opacity:1;fill-rule:nonzero;stroke:none;stroke-width:0.0352778"
       id="path464" />
    <path
       d="m 41.24975,56.799718 -0.892422,0.698147 -0.148272,-0.189442 0.892387,-0.698147 0.148307,0.189442"
       style="fill:#293748;fill-opacity:1;fill-rule:nonzero;stroke:none;stroke-width:0.0352778"
       id="path466" />
    <path
       d="m 40.986931,56.463873 -0.892528,0.698148 -0.148167,-0.189442 0.892422,-0.698147 0.148273,0.189441"
       style="fill:#293748;fill-opacity:1;fill-rule:nonzero;stroke:none;stroke-width:0.0352778"
       id="path468" />
    <path
       d="m 40.724147,56.128029 -0.892422,0.698147 -0.148132,-0.189441 0.892564,-0.698148 0.14799,0.189442"
       style="fill:#293748;fill-opacity:1;fill-rule:nonzero;stroke:none;stroke-width:0.0352778"
       id="path470" />
    <path
       d="m 40.461363,55.791832 -0.892563,0.6985 -0.147991,-0.189442 0.892422,-0.698147 0.148132,0.189089"
       style="fill:#293748;fill-opacity:1;fill-rule:nonzero;stroke:none;stroke-width:0.0352778"
       id="path472" />
    <path
       d="m 56.231342,55.000904 -2.12217,-4.730045 5.328179,-2.390069 2.121853,4.729692 -5.327862,2.390422"
       style="fill:#ffffff;fill-opacity:1;fill-rule:nonzero;stroke:none;stroke-width:0.0352778"
       id="path474" />
    <path
       d="m 61.828373,49.648912 c -0.133703,-0.298097 -0.483305,-0.431447 -0.782461,-0.297745 -0.297392,0.134056 -0.430742,0.484012 -0.297039,0.782462 0.134056,0.298097 0.483658,0.431094 0.781403,0.297391 0.298803,-0.133703 0.432153,-0.483658 0.298097,-0.782108 z m -0.269169,2.96157 -1.060803,-2.36467 -1.06105,-2.365022 1.929942,0.06914 0.711905,1.586795 0.711553,1.586441 -1.231547,1.487312"
       style="fill:#10deda;fill-opacity:1;fill-rule:nonzero;stroke:none;stroke-width:0.0352778"
       id="path476" />
    <path
       d="m 61.725715,49.695479 c -0.108303,-0.241653 -0.391584,-0.349956 -0.633942,-0.2413 -0.240594,0.10795 -0.348544,0.391936 -0.240242,0.633588 0.108303,0.240948 0.391937,0.34925 0.633237,0.240948 0.241652,-0.108656 0.348897,-0.392642 0.240947,-0.633236 z m -0.175684,0.779286 c -0.322086,0.144286 -0.699911,7.05e-4 -0.844197,-0.321734 -0.144992,-0.322439 -0.0011,-0.700616 0.320675,-0.845255 0.322086,-0.144639 0.70097,-3.53e-4 0.845256,0.321733 0.144991,0.322439 0.0011,0.700617 -0.321734,0.845256"
       style="fill:#fbb03b;fill-opacity:1;fill-rule:nonzero;stroke:none;stroke-width:0.0352778"
       id="path478" />
    <path
       d="m 61.603301,49.765681 -0.130881,-0.2413 c 1.466498,-0.79375 2.315634,-2.177344 2.2606,-3.004961 -0.01729,-0.261408 -0.126647,-0.432153 -0.324908,-0.507647 -0.159455,-0.06068 -0.310444,-0.04762 -0.461786,0.03916 -0.614892,0.356658 -1.067858,1.876072 -1.204031,2.735086 l -0.193675,-0.4318 c 0.183798,-0.86748 0.604309,-2.160058 1.260475,-2.540353 0.223662,-0.129822 0.457906,-0.149225 0.696737,-0.05856 0.298802,0.113948 0.47625,0.378531 0.500944,0.746125 0.06032,0.911578 -0.841375,2.419351 -2.403475,3.264253"
       style="fill:#ffffff;fill-opacity:1;fill-rule:nonzero;stroke:none;stroke-width:0.0352778"
       id="path480" />
    <path
       d="m 61.603301,49.765681 c -0.124531,0.05609 -0.388408,0.0039 -0.253647,-0.349602 0.1397,-7.06e-4 0.20955,0.07973 0.20955,0.07973 l 0.0441,0.269875"
       style="fill:#8dccdb;fill-opacity:1;fill-rule:nonzero;stroke:none;stroke-width:0.0352778"
       id="path482" />
    <path
       d="m 57.373072,53.444801 -0.304836,0.800806 -0.400191,-0.1524 0.296439,-0.778581 c -0.456,-0.204611 -0.758225,-0.514703 -0.939129,-0.897819 l 0.386926,-0.191206 c 0.156987,0.329494 0.40185,0.592314 0.80257,0.745067 0.449933,0.171097 0.899195,0.07796 1.070187,-0.371123 0.144145,-0.378883 0.02565,-0.611716 -0.531637,-1.043869 -0.635,-0.493183 -0.889247,-0.897467 -0.678532,-1.450975 0.191946,-0.504472 0.731449,-0.733072 1.327714,-0.568325 l 0.304835,-0.800806 0.400051,0.1524 -0.304695,0.800806 c 0.356482,0.185561 0.562116,0.420511 0.726652,0.747183 l -0.378989,0.188736 c -0.162878,-0.332316 -0.390807,-0.525639 -0.703051,-0.644525 -0.389714,-0.148519 -0.751029,-0.07232 -0.886636,0.283986 -0.12319,0.323498 -0.02812,0.535164 0.554531,0.983545 0.532342,0.415572 0.914329,0.831497 0.653309,1.517297 -0.210679,0.553509 -0.729262,0.826911 -1.395518,0.679803"
       style="fill:#10deda;fill-opacity:1;fill-rule:nonzero;stroke:none;stroke-width:0.0352778"
       id="path484" />
    <path
       d="m 66.298421,38.352261 -0.0025,-0.04304 0.05786,-0.0046 -0.01164,-0.182033 -0.05539,0.0042 -0.01341,-0.08678 0.05644,-0.01199 -0.03387,-0.178505 -0.05644,0.01023 -0.02152,-0.08467 0.05468,-0.01799 -0.0568,-0.172861 -0.05503,0.01799 -0.02928,-0.0829 0.04939,-0.02328 -0.07796,-0.1651 -0.0508,0.02434 -0.04339,-0.07691 0.04904,-0.0314 -0.09772,-0.153458 -0.04798,0.03104 -0.05186,-0.07055 0.04374,-0.03775 -0.116417,-0.140053 -0.0441,0.03775 -0.05962,-0.06491 0.0388,-0.04233 -0.132997,-0.124884 -0.03881,0.04269 -0.06773,-0.05644 0.03351,-0.04657 -0.147814,-0.107244 -0.03281,0.04586 -0.07408,-0.04551 0.02716,-0.05115 -0.159808,-0.0882 -0.02752,0.05151 -0.07867,-0.0381 0.02046,-0.05327 -0.170392,-0.06703 -0.02011,0.05292 -0.08255,-0.02822 0.01305,-0.05398 -0.176389,-0.04586 -0.01446,0.05468 -0.08573,-0.01446 0.0063,-0.05821 -0.181328,-0.02293 -0.0063,0.05786 -0.08749,-0.0049 v -0.05856 h -0.183091 v 0.05856 l -0.08678,0.0049 -0.0067,-0.05644 -0.18168,0.02152 0.0074,0.05821 -0.08608,0.01446 -0.0134,-0.05468 -0.177447,0.04586 0.01376,0.05398 -0.0822,0.02822 -0.02117,-0.05292 -0.170744,0.06703 0.02117,0.05327 -0.07867,0.03704 -0.02681,-0.05045 -0.160867,0.08855 0.02752,0.0508 -0.07444,0.04551 -0.03281,-0.04586 -0.148519,0.10795 0.03387,0.04586 -0.06738,0.05644 -0.03845,-0.04269 -0.13335,0.125942 0.03916,0.04127 -0.05927,0.06421 -0.0448,-0.03775 -0.116417,0.141817 0.0448,0.03704 -0.05256,0.0695 -0.04762,-0.03104 -0.09878,0.155575 0.04868,0.02999 -0.04304,0.0762 -0.05115,-0.02469 -0.07726,0.166158 0.05009,0.02399 -0.02963,0.08149 -0.05539,-0.01799 -0.05644,0.174625 0.05433,0.01764 -0.02152,0.08396 -0.05645,-0.01094 -0.03422,0.179564 0.05715,0.01164 -0.01341,0.08608 -0.05539,-0.0039 -0.01129,0.183092 0.05715,0.0032 -0.0021,0.04374 0.0021,0.04375 -0.05715,0.0028 0.01129,0.183444 0.05539,-0.0035 0.01341,0.08537 -0.05715,0.01094 0.03422,0.180269 0.05645,-0.01094 0.02152,0.08396 -0.05433,0.01834 0.05644,0.173919 0.05539,-0.01764 0.02963,0.08114 -0.05009,0.02364 0.07726,0.166511 0.05115,-0.02399 0.04304,0.07585 -0.04833,0.02999 0.09842,0.155575 0.04762,-0.03175 0.05256,0.07055 -0.0448,0.03669 0.116417,0.141111 0.0448,-0.03739 0.05927,0.06456 -0.03916,0.04127 0.13335,0.124884 0.03845,-0.04163 0.06738,0.05609 -0.03316,0.04551 0.147814,0.109008 0.03281,-0.04621 0.07444,0.04516 -0.02752,0.05045 0.160867,0.08855 0.02681,-0.05009 0.07867,0.03739 -0.02046,0.05292 0.170039,0.06809 0.02117,-0.05362 0.0822,0.02752 -0.01376,0.05398 0.177447,0.04586 0.0134,-0.05398 0.08608,0.01482 -0.0074,0.05715 0.18168,0.02293 0.0067,-0.05715 0.08678,0.0042 7.05e-4,0.05786 0.182739,7.05e-4 -3.53e-4,-0.05856 0.08714,-0.0042 0.0074,0.05715 0.182033,-0.02293 -0.0078,-0.05715 0.08502,-0.01482 0.01517,0.05398 0.177447,-0.0448 -0.01411,-0.05503 0.08184,-0.02752 0.02152,0.05256 0.170039,-0.06703 -0.02187,-0.05292 0.07937,-0.03739 0.02787,0.04939 0.160867,-0.08749 -0.02858,-0.0508 0.07444,-0.04516 0.03281,0.04516 0.148872,-0.106539 -0.03457,-0.04692 0.06773,-0.05539 0.03951,0.04057 0.13335,-0.124178 -0.03986,-0.04092 0.05962,-0.06526 0.0441,0.03669 0.11677,-0.140406 -0.04445,-0.03669 0.05221,-0.07055 0.04798,0.03034 0.09772,-0.153459 -0.04904,-0.03069 0.04339,-0.07585 0.0515,0.02328 0.07726,-0.164747 -0.04939,-0.02364 0.02928,-0.0822 0.05539,0.01729 0.05644,-0.173566 -0.05468,-0.01799 0.02152,-0.08361 0.05715,0.0095 0.03316,-0.178506 -0.05644,-0.01129 0.01341,-0.08608 0.05574,0.0028 0.01094,-0.182034 -0.0575,-0.0032 0.0025,-0.0441"
       style="fill:#456785;fill-opacity:1;fill-rule:nonzero;stroke:none;stroke-width:0.0352778"
       id="path486" />
    <path
       d="m 65.749851,38.352261 c 0,0.885472 -0.71755,1.603022 -1.602317,1.603022 -0.885825,0 -1.603727,-0.71755 -1.603727,-1.603022 0,-0.884767 0.717902,-1.602669 1.603727,-1.602669 0.884767,0 1.602317,0.717902 1.602317,1.602669"
       style="fill:#ffffff;fill-opacity:1;fill-rule:nonzero;stroke:none;stroke-width:0.0352778"
       id="path488" />
    <path
       d="m 64.272065,39.434583 v 0.460023 h -0.230011 v -0.447323 c -0.267406,-0.01552 -0.477661,-0.113594 -0.642409,-0.27058 l 0.158045,-0.170039 c 0.141464,0.135114 0.31503,0.220133 0.544689,0.220133 0.258586,0 0.465314,-0.132291 0.465314,-0.389819 0,-0.217664 -0.103717,-0.311856 -0.465314,-0.42157 -0.412045,-0.126647 -0.617361,-0.280811 -0.617361,-0.598664 0,-0.289277 0.227189,-0.506941 0.557036,-0.537986 v -0.459669 h 0.230011 v 0.459669 c 0.214136,0.0254 0.36195,0.103717 0.506589,0.236361 l -0.153811,0.166512 c -0.145345,-0.135467 -0.295981,-0.189089 -0.475192,-0.189089 -0.224014,0 -0.390525,0.107597 -0.390525,0.311855 0,0.185561 0.08819,0.273756 0.465314,0.386997 0.347133,0.106892 0.617361,0.242712 0.617361,0.636059 0,0.317853 -0.207786,0.553508 -0.569736,0.60713"
       style="fill:#ffca00;fill-opacity:1;fill-rule:nonzero;stroke:none;stroke-width:0.0352778"
       id="path490" />
    <path
       d="m 48.103553,40.407192 -0.01214,-0.02575 0.03433,-0.01729 -0.05197,-0.10795 -0.03267,0.01623 -0.02949,-0.04974 0.03157,-0.02117 -0.06449,-0.100541 -0.03196,0.02011 -0.03376,-0.04621 0.02893,-0.02469 -0.07719,-0.09102 -0.02893,0.02434 -0.03831,-0.04339 0.02438,-0.02646 -0.08791,-0.08149 -0.02522,0.02752 -0.04519,-0.03634 0.02219,-0.03105 -0.09716,-0.06985 -0.02163,0.03069 -0.04907,-0.03034 0.01736,-0.03387 -0.105269,-0.0568 -0.01778,0.03422 -0.05207,-0.02505 0.01337,-0.03528 -0.111901,-0.04339 -0.01323,0.03528 -0.055,-0.01764 0.009,-0.03669 -0.116452,-0.02928 -0.0087,0.03634 -0.05637,-0.0099 0.004,-0.03775 -0.119063,-0.01446 -0.0041,0.0381 -0.05722,-0.0039 -8.11e-4,-0.03775 -0.120297,0.0011 9.52e-4,0.03739 -0.05747,0.0032 -0.0054,-0.03634 -0.11878,0.01552 0.0046,0.03669 -0.05567,0.01199 -0.01023,-0.03669 -0.116275,0.03034 0.01034,0.03669 -0.05472,0.0187 -0.01432,-0.03563 -0.111654,0.0448 0.01436,0.03563 -0.05154,0.02434 -0.01792,-0.03281 -0.105551,0.05786 0.01873,0.03351 -0.04893,0.02999 -0.02163,-0.02999 -0.09673,0.07161 0.02149,0.02928 -0.043,0.03739 -0.02604,-0.02716 -0.08763,0.0829 0.02589,0.02716 -0.0387,0.04198 -0.02882,-0.02434 -0.0762,0.09349 0.02907,0.02434 -0.03418,0.04586 -0.03126,-0.01976 -0.06396,0.102305 0.03171,0.01976 -0.02716,0.0508 -0.0339,-0.01658 -0.05031,0.109361 0.0339,0.01552 -0.02039,0.05397 -0.03665,-0.01235 -0.03623,0.115359 0.03651,0.01164 -0.01503,0.05503 -0.03665,-0.0071 -0.02205,0.118886 0.03722,0.0064 -0.0076,0.05715 -0.03736,-0.0028 -0.0063,0.12065 0.03637,0.0021 0.0019,0.05715 -0.03803,0.0025 0.0083,0.120297 0.03761,-0.0028 0.0073,0.0568 -0.03694,0.0071 0.02318,0.117828 0.03775,-0.0071 0.01281,0.05609 -0.03471,0.01094 0.03803,0.1143 0.03584,-0.01164 0.0092,0.02716 0.01214,0.02611 -0.03418,0.01552 0.05182,0.109008 0.03281,-0.01552 0.02935,0.04868 -0.03238,0.02046 0.0653,0.101953 0.03171,-0.02081 0.03376,0.04586 -0.02868,0.02469 0.07705,0.09208 0.02949,-0.02399 0.03775,0.04198 -0.02466,0.02681 0.08805,0.08255 0.02522,-0.02752 0.04491,0.03563 -0.02205,0.03034 0.098,0.07056 0.02148,-0.03069 0.04921,0.02999 -0.01849,0.03316 0.105692,0.0575 0.0182,-0.03351 0.05211,0.0247 -0.01379,0.03457 0.111901,0.04375 0.01323,-0.03493 0.05482,0.01764 -0.0091,0.03598 0.116841,0.02999 0.0088,-0.03634 0.05637,0.0095 -0.0044,0.03739 0.119874,0.01446 0.004,-0.03704 0.05704,0.0035 3.88e-4,0.03704 h 0.120579 l -2.47e-4,-0.0381 0.05676,-0.0032 0.005,0.03634 0.119168,-0.01552 -0.0048,-0.03634 0.05609,-0.01199 0.0093,0.03669 0.116593,-0.03069 -0.0099,-0.03634 0.05373,-0.0187 0.01475,0.03493 0.111618,-0.04445 -0.01475,-0.03563 0.05211,-0.02364 0.01859,0.03281 0.105269,-0.05856 -0.01859,-0.03316 0.04808,-0.02963 0.02233,0.02893 0.09744,-0.07056 -0.02219,-0.03034 0.04314,-0.03669 0.02604,0.02681 0.08724,-0.0829 -0.02632,-0.02681 0.03926,-0.04233 0.02907,0.02364 0.07662,-0.09278 -0.02992,-0.02434 0.03433,-0.04586 0.03101,0.01976 0.06463,-0.1016 -0.03238,-0.02011 0.02741,-0.05045 0.03418,0.01517 0.05083,-0.108303 -0.03429,-0.01552 0.02025,-0.05398 0.03595,0.01129 0.03669,-0.1143 -0.03627,-0.01164 0.01475,-0.05539 0.03679,0.0067 0.02177,-0.117828 -0.03732,-0.0067 0.0077,-0.0568 0.03722,0.0018 0.0068,-0.119592 -0.03613,-0.0021 -0.002,-0.0575 0.03789,-0.0028 -0.0081,-0.119944 -0.03775,0.0025 -0.0074,-0.05609 0.03708,-0.0085 -0.02342,-0.116769 -0.03736,0.0071 -0.01295,-0.05609 0.03485,-0.01164 -0.03817,-0.113595 -0.0357,0.01199 -0.0093,-0.02716"
       style="fill:#456785;fill-opacity:1;fill-rule:nonzero;stroke:none;stroke-width:0.0352778"
       id="path492" />
    <path
       d="m 47.769084,40.5416 c 0.217205,0.53975 -0.04424,1.153231 -0.583706,1.370189 -0.539926,0.217311 -1.153583,-0.04374 -1.370753,-0.583494 -0.21717,-0.53975 0.04438,-1.153231 0.584305,-1.370542 0.539504,-0.217311 1.152984,0.04445 1.370154,0.583847"
       style="fill:#ffffff;fill-opacity:1;fill-rule:nonzero;stroke:none;stroke-width:0.0352778"
       id="path494" />
    <path
       d="m 47.133696,41.56395 0.112713,0.280459 -0.140159,0.05644 -0.109679,-0.272697 c -0.166758,0.05609 -0.319017,0.04798 -0.45794,-0.0074 l 0.05443,-0.142522 c 0.119627,0.04762 0.246274,0.0568 0.386292,7.06e-4 0.157515,-0.0635 0.251213,-0.194734 0.18796,-0.35172 -0.05348,-0.132644 -0.139735,-0.164747 -0.387103,-0.143227 -0.282364,0.02434 -0.445241,-0.0194 -0.52324,-0.213078 -0.07112,-0.176742 0.01408,-0.364772 0.207539,-0.464961 l -0.112713,-0.280106 0.140124,-0.05644 0.112748,0.280105 c 0.136807,-0.03704 0.246238,-0.0254 0.366959,0.02011 l -0.05306,0.138994 c -0.121673,-0.04692 -0.226836,-0.04269 -0.33595,0.0014 -0.136702,0.05503 -0.211667,0.16122 -0.161537,0.286103 0.04551,0.112889 0.120862,0.144992 0.378566,0.121708 0.237701,-0.02011 0.435857,-0.0035 0.532341,0.236361 0.078,0.193675 0.0092,0.388409 -0.198296,0.509764"
       style="fill:#ffca00;fill-opacity:1;fill-rule:nonzero;stroke:none;stroke-width:0.0352778"
       id="path496" />
    <path
       d="m 68.391804,46.527181 -0.01552,-0.03316 0.04374,-0.02187 -0.06667,-0.138642 -0.04198,0.02046 -0.03775,-0.0635 0.04057,-0.02752 -0.0829,-0.129117 -0.04127,0.02575 -0.04339,-0.05927 0.03739,-0.0314 -0.09913,-0.117475 -0.03739,0.0314 -0.04939,-0.05574 0.0314,-0.03387 -0.112889,-0.104775 -0.03245,0.03493 -0.05786,-0.04621 0.02822,-0.04022 -0.124884,-0.08961 -0.02787,0.03951 -0.06279,-0.03916 0.02223,-0.04339 -0.135466,-0.07303 -0.02258,0.04375 -0.06703,-0.0321 0.01693,-0.04551 -0.14358,-0.05574 -0.01693,0.04551 -0.07091,-0.02293 0.01164,-0.04692 -0.149578,-0.03739 -0.01129,0.04621 -0.07267,-0.01235 0.0053,-0.04868 -0.153106,-0.0187 -0.0053,0.04904 -0.07338,-0.0049 -0.0011,-0.04833 -0.154516,0.0014 0.0011,0.04798 -0.07373,0.0039 -0.0071,-0.04657 -0.152753,0.01976 0.006,0.04727 -0.07161,0.01552 -0.01305,-0.04727 -0.149578,0.03916 0.0134,0.04727 -0.07055,0.02364 -0.01834,-0.04586 -0.14358,0.05786 0.0187,0.04586 -0.06632,0.03104 -0.02328,-0.04198 -0.135466,0.07444 0.02399,0.04304 -0.06279,0.03845 -0.02787,-0.03845 -0.124178,0.09172 0.02752,0.0381 -0.05539,0.04798 -0.03316,-0.03493 -0.112889,0.106539 0.03351,0.03493 -0.05009,0.05397 -0.03704,-0.03104 -0.09772,0.119944 0.03739,0.03104 -0.0441,0.05927 -0.04022,-0.0254 -0.0822,0.131234 0.04092,0.0254 -0.03493,0.06526 -0.04374,-0.02117 -0.06456,0.140758 0.04339,0.01976 -0.02611,0.06914 -0.04727,-0.01517 -0.04621,0.147814 0.04692,0.01482 -0.0194,0.07091 -0.04727,-0.0092 -0.02822,0.153106 0.04798,0.0081 -0.0099,0.07338 -0.04798,-0.0035 -0.0081,0.154869 0.04657,0.0028 0.0028,0.07338 -0.04904,0.0032 0.01058,0.154517 0.04833,-0.0032 0.0095,0.07267 -0.04763,0.0092 0.02963,0.151695 0.04868,-0.0092 0.01658,0.07197 -0.0448,0.01411 0.04904,0.147109 0.04586,-0.01552 0.01199,0.03528 0.01552,0.03351 -0.04374,0.02011 0.06632,0.140052 0.04233,-0.02011 0.03775,0.06279 -0.04163,0.02646 0.08396,0.130528 0.04057,-0.02646 0.04339,0.05891 -0.03669,0.03175 0.09913,0.118533 0.03775,-0.0314 0.04868,0.05398 -0.03175,0.03457 0.112889,0.106187 0.03281,-0.03528 0.0575,0.04586 -0.02822,0.0388 0.125942,0.09102 0.02752,-0.03986 0.06315,0.03845 -0.02364,0.04304 0.13582,0.07408 0.02364,-0.04339 0.06668,0.03175 -0.01764,0.0448 0.143933,0.05574 0.01693,-0.0448 0.07055,0.02293 -0.01164,0.04586 0.14993,0.03881 0.01164,-0.04657 0.07232,0.012 -0.0056,0.04798 0.154164,0.01905 0.0049,-0.04798 0.07338,0.0046 7.06e-4,0.04798 0.154869,-3.52e-4 -3.52e-4,-0.04868 0.07303,-0.0042 0.0063,0.04657 0.153458,-0.02011 -0.0063,-0.04657 0.07197,-0.01552 0.01199,0.04727 0.149931,-0.03951 -0.0127,-0.04657 0.06914,-0.02434 0.01905,0.04516 0.143228,-0.05715 -0.01905,-0.04551 0.06738,-0.03069 0.02364,0.04198 0.135466,-0.07514 -0.02399,-0.04233 0.06174,-0.03845 0.02893,0.0374 0.124884,-0.09102 -0.02822,-0.03845 0.05539,-0.04763 0.03351,0.03457 0.111831,-0.106186 -0.03351,-0.03457 0.05045,-0.05468 0.0374,0.03034 0.09842,-0.119239 -0.03845,-0.03104 0.0441,-0.05891 0.03986,0.02505 0.08326,-0.130528 -0.04198,-0.0254 0.03563,-0.06491 0.04374,0.01905 0.06526,-0.138995 -0.0441,-0.01975 0.02611,-0.06985 0.04621,0.01482 0.04727,-0.147108 -0.04657,-0.01482 0.0187,-0.07126 0.04727,0.0085 0.02822,-0.150989 -0.04798,-0.0088 0.0099,-0.07303 0.04762,0.0021 0.0088,-0.153458 -0.04621,-0.0028 -0.0028,-0.07373 0.04868,-0.0039 -0.01058,-0.154164 -0.04833,0.0032 -0.0099,-0.07232 0.04798,-0.01058 -0.03034,-0.150283 -0.04762,0.0088 -0.01693,-0.07161 0.0448,-0.01517 -0.04904,-0.14605 -0.04586,0.01552 -0.012,-0.03528"
       style="fill:#456785;fill-opacity:1;fill-rule:nonzero;stroke:none;stroke-width:0.0352778"
       id="path498" />
    <path
       d="m 67.961768,46.700395 c 0.279047,0.693561 -0.0568,1.482372 -0.750358,1.76142 -0.693914,0.279047 -1.482726,-0.0568 -1.762126,-0.750359 -0.279047,-0.693561 0.05715,-1.482372 0.751417,-1.761772 0.693209,-0.279047 1.48202,0.05715 1.761067,0.750711"
       style="fill:#ffffff;fill-opacity:1;fill-rule:nonzero;stroke:none;stroke-width:0.0352778"
       id="path500" />
    <path
       d="m 67.145087,48.014492 0.144992,0.360539 -0.180269,0.07232 -0.141112,-0.350309 c -0.214488,0.07197 -0.409927,0.06138 -0.588433,-0.0095 l 0.06985,-0.183091 c 0.153811,0.06138 0.316442,0.07303 0.496358,7.05e-4 0.202495,-0.08149 0.323145,-0.250472 0.241653,-0.452261 -0.06844,-0.170392 -0.179564,-0.211667 -0.497416,-0.183797 -0.363009,0.03104 -0.572559,-0.02505 -0.672748,-0.274109 -0.09137,-0.226836 0.01834,-0.468841 0.267053,-0.597252 l -0.144992,-0.360539 0.179917,-0.07232 0.144992,0.360186 c 0.176036,-0.04798 0.316441,-0.03281 0.471664,0.0254 l -0.06809,0.178859 c -0.156281,-0.05997 -0.291748,-0.05468 -0.4318,0.0018 -0.175684,0.07055 -0.271992,0.207433 -0.207787,0.367594 0.05856,0.145345 0.155575,0.18662 0.486834,0.156633 0.305505,-0.02575 0.560211,-0.0046 0.684036,0.303742 0.100542,0.249061 0.01199,0.499181 -0.254706,0.655461"
       style="fill:#ffca00;fill-opacity:1;fill-rule:nonzero;stroke:none;stroke-width:0.0352778"
       id="path502" />
    <path
       d="m 63.243718,56.625446 0.02011,-0.01094 0.01588,0.02646 0.08361,-0.04833 -0.01482,-0.0254 0.0381,-0.02646 0.0187,0.02399 0.0769,-0.05786 -0.01799,-0.02434 0.03528,-0.02999 0.02152,0.02152 0.06844,-0.06738 -0.02117,-0.02187 0.03246,-0.03351 0.02293,0.01834 0.05997,-0.07585 -0.02328,-0.01835 0.02646,-0.03845 0.02611,0.01588 0.05045,-0.08255 -0.02611,-0.01552 0.02152,-0.04092 0.02822,0.01164 0.03916,-0.08784 -0.02822,-0.01235 0.01693,-0.04339 0.02928,0.0085 0.02787,-0.09243 -0.02893,-0.0085 0.01094,-0.04551 0.02963,0.0053 0.01658,-0.0956 -0.02928,-0.0046 0.0042,-0.04586 0.03069,7.06e-4 0.0046,-0.09631 -0.03104,-0.0011 -3.53e-4,-0.04621 0.03034,-0.0032 -0.0081,-0.09631 -0.02999,0.0028 -0.006,-0.04621 0.02893,-0.0064 -0.0194,-0.09454 -0.02928,0.006 -0.01305,-0.0441 0.02893,-0.01058 -0.0314,-0.09137 -0.02893,0.01023 -0.01835,-0.04269 0.02787,-0.01376 -0.04269,-0.08714 -0.02787,0.01376 -0.02258,-0.04022 0.02505,-0.01623 -0.05256,-0.08114 -0.02575,0.01693 -0.02716,-0.0374 0.02258,-0.0194 -0.06315,-0.07338 -0.02258,0.01905 -0.03246,-0.03246 0.02046,-0.02258 -0.07197,-0.06562 -0.02046,0.02258 -0.03598,-0.02857 0.01764,-0.02469 -0.07973,-0.05539 -0.01764,0.02469 -0.03916,-0.02469 0.01411,-0.02646 -0.08572,-0.04516 -0.01411,0.02681 -0.04269,-0.01905 0.01129,-0.02822 -0.09102,-0.03387 -0.01023,0.02822 -0.04445,-0.01305 0.0074,-0.03034 -0.0949,-0.02222 -0.0071,0.03034 -0.04516,-0.0088 0.0035,-0.02999 -0.09701,-0.01058 -0.0028,0.03034 -0.04621,-0.0028 -3.52e-4,-0.02999 -0.09701,0.0021 3.52e-4,0.02928 -0.04586,0.0049 -0.0042,-0.03034 -0.09631,0.01376 0.0046,0.02999 -0.04516,0.0095 -0.0081,-0.02928 -0.09349,0.02575 0.0081,0.02963 -0.0441,0.01376 -0.01094,-0.02716 -0.08996,0.03739 0.01199,0.02822 -0.02152,0.0092 -0.02011,0.01129 -0.01482,-0.02681 -0.08431,0.04833 0.01446,0.0254 -0.03739,0.02646 -0.0187,-0.02469 -0.07761,0.05856 0.01834,0.02434 -0.03493,0.02963 -0.02152,-0.02152 -0.0695,0.06773 0.02152,0.02222 -0.03175,0.03281 -0.02293,-0.01834 -0.06103,0.07585 0.02364,0.0187 -0.02611,0.0381 -0.02575,-0.01588 -0.0508,0.0829 0.02611,0.01552 -0.02117,0.04127 -0.02787,-0.0127 -0.03986,0.08855 0.02822,0.01235 -0.01693,0.04339 -0.02857,-0.0088 -0.02858,0.09243 0.02893,0.0085 -0.01094,0.04516 -0.02928,-0.0049 -0.01729,0.0956 0.02963,0.0049 -0.0039,0.04586 -0.03034,-0.0011 -0.0046,0.09701 0.02999,0.0011 7.05e-4,0.04621 -0.02999,0.0025 0.0074,0.09701 0.03034,-0.0025 0.006,0.04516 -0.02858,0.0063 0.01976,0.0949 0.02857,-0.006 0.01305,0.0441 -0.02857,0.0099 0.0314,0.09172 0.02858,-0.0099 0.01834,0.04198 -0.02716,0.01411 0.04233,0.08678 0.02752,-0.01376 0.02258,0.04022 -0.0254,0.01693 0.05327,0.08114 0.0254,-0.01693 0.02681,0.03704 -0.02187,0.01976 0.06279,0.07373 0.02293,-0.0194 0.0321,0.03245 -0.02011,0.02258 0.07197,0.06491 0.01976,-0.02258 0.03669,0.02893 -0.01729,0.02505 0.07938,0.05574 0.01729,-0.0254 0.03916,0.0247 -0.01411,0.02646 0.08572,0.04586 0.01411,-0.02752 0.04198,0.01905 -0.0099,0.02857 0.09031,0.03422 0.01023,-0.02857 0.0448,0.01305 -0.0071,0.02963 0.09419,0.02258 0.0071,-0.02963 0.04551,0.0085 -0.0032,0.02999 0.09596,0.01023 0.0032,-0.03034 0.04621,0.0028 7.05e-4,0.02999 0.09631,-0.0018 -3.52e-4,-0.02893 0.04621,-0.0053 0.0046,0.03034 0.0956,-0.01376 -0.0042,-0.03034 0.0448,-0.0092 0.0088,0.02928 0.09278,-0.02611 -0.0078,-0.02928 0.0441,-0.01376 0.01164,0.02716 0.0889,-0.03739 -0.01199,-0.02787 0.02152,-0.0095"
       style="fill:#456785;fill-opacity:1;fill-rule:nonzero;stroke:none;stroke-width:0.0352778"
       id="path504" />
    <path
       d="m 63.115659,56.364743 c -0.420864,0.20708 -0.929922,0.03387 -1.13665,-0.386997 -0.207433,-0.420864 -0.03387,-0.929923 0.386998,-1.137003 0.420511,-0.207081 0.929569,-0.03351 1.13665,0.38735 0.20708,0.420864 0.03351,0.929922 -0.386998,1.13665"
       style="fill:#ffffff;fill-opacity:1;fill-rule:nonzero;stroke:none;stroke-width:0.0352778"
       id="path506" />
    <path
       d="m 62.255587,55.915304 -0.218722,0.107597 -0.05362,-0.109361 0.212372,-0.104422 c -0.05503,-0.130881 -0.0575,-0.253647 -0.02152,-0.368653 l 0.117828,0.03528 c -0.03104,0.09878 -0.03104,0.201083 0.02293,0.310444 0.06033,0.122767 0.17145,0.190148 0.293864,0.129823 0.103364,-0.0508 0.124177,-0.122062 0.09172,-0.319617 -0.03634,-0.225425 -0.01094,-0.359128 0.140053,-0.433564 0.137583,-0.06773 0.294216,-0.01058 0.385939,0.138994 l 0.218722,-0.107597 0.05362,0.109361 -0.218369,0.107597 c 0.0381,0.10795 0.03528,0.196498 0.006,0.295981 l -0.115006,-0.03422 c 0.03034,-0.100542 0.02081,-0.184856 -0.02117,-0.269875 -0.05256,-0.106539 -0.142523,-0.160514 -0.239889,-0.112537 -0.08784,0.04339 -0.109361,0.105834 -0.07479,0.311503 0.03034,0.189795 0.02857,0.350309 -0.158045,0.442031 -0.151341,0.07444 -0.311855,0.03069 -0.421922,-0.128764"
       style="fill:#ffca00;fill-opacity:1;fill-rule:nonzero;stroke:none;stroke-width:0.0352778"
       id="path508" />
    <path
       d="m 58.623916,36.697381 0.02522,-0.01411 0.01968,0.03316 0.105304,-0.06068 -0.01877,-0.03175 0.04798,-0.03351 0.02381,0.03034 0.09677,-0.07303 -0.02275,-0.03069 0.04424,-0.03739 0.02688,0.02716 0.08654,-0.08467 -0.02688,-0.02752 0.04078,-0.04198 0.02868,0.02258 0.07563,-0.0949 -0.02949,-0.02364 0.03323,-0.04833 0.0332,0.02011 0.06297,-0.103364 -0.03263,-0.01976 0.02699,-0.05186 0.03542,0.01517 0.0495,-0.110772 -0.03556,-0.01552 0.02134,-0.05433 0.03651,0.01058 0.03542,-0.116417 -0.03665,-0.01058 0.01379,-0.0568 0.03761,0.006 0.02067,-0.119592 -0.03708,-0.006 0.0055,-0.05786 0.03856,0.0011 0.0057,-0.121355 -0.03888,-0.0014 -4.23e-4,-0.05786 0.03789,-0.0039 -0.0099,-0.121356 -0.03761,0.0035 -0.0074,-0.05786 0.03609,-0.0081 -0.02452,-0.118533 -0.03679,0.0071 -0.01655,-0.05503 0.03651,-0.01341 -0.03955,-0.115006 -0.03637,0.01305 -0.02286,-0.05398 0.035,-0.01693 -0.0539,-0.109714 -0.035,0.01729 -0.02822,-0.05045 0.03168,-0.02046 -0.06643,-0.102305 -0.03253,0.02152 -0.0339,-0.04727 0.02854,-0.02399 -0.07952,-0.09243 -0.02826,0.02399 -0.04092,-0.04092 0.02551,-0.02822 -0.09028,-0.0822 -0.02575,0.02822 -0.04523,-0.03598 0.02233,-0.03105 -0.10033,-0.06985 -0.02215,0.03104 -0.04921,-0.03104 0.01778,-0.03316 -0.108056,-0.0568 -0.01764,0.03351 -0.05345,-0.02364 0.01404,-0.03563 -0.114371,-0.04233 -0.01309,0.03528 -0.05581,-0.01658 0.0094,-0.03775 -0.119063,-0.02787 -0.009,0.03775 -0.0568,-0.01094 0.0043,-0.03775 -0.121814,-0.0134 -0.0037,0.0381 -0.05831,-0.0035 -1.06e-4,-0.03775 -0.122238,0.0025 3.88e-4,0.03704 -0.05733,0.0064 -0.0055,-0.0381 -0.120862,0.01729 0.0054,0.03775 -0.05651,0.01164 -0.0102,-0.03669 -0.117404,0.0321 0.0099,0.03775 -0.05539,0.01729 -0.01394,-0.03422 -0.112713,0.04692 0.01489,0.03528 -0.02688,0.01164 -0.02547,0.01411 -0.01848,-0.03351 -0.106257,0.06068 0.01835,0.0321 -0.04713,0.03316 -0.02328,-0.03104 -0.09786,0.07373 0.02318,0.03034 -0.04371,0.03775 -0.02699,-0.02716 -0.08738,0.08502 0.02674,0.02787 -0.03969,0.04127 -0.02893,-0.02293 -0.07676,0.09525 0.02949,0.02328 -0.03267,0.04833 -0.0321,-0.02011 -0.06406,0.104423 0.03277,0.0194 -0.0266,0.05186 -0.03514,-0.01588 -0.05016,0.110772 0.03556,0.01623 -0.0211,0.05433 -0.03623,-0.01129 -0.03556,0.116416 0.03627,0.01058 -0.01379,0.0568 -0.03679,-0.0063 -0.02163,0.120297 0.03718,0.0063 -0.0051,0.0575 -0.03817,-0.0014 -0.0058,0.122061 0.03803,0.0014 7.05e-4,0.05786 -0.03778,0.0032 0.0094,0.122061 0.03831,-0.0032 0.0076,0.05715 -0.03627,0.0078 0.0248,0.119239 0.03612,-0.0078 0.01655,0.05574 -0.03627,0.01235 0.03969,0.115358 0.03598,-0.0127 0.023,0.05292 -0.03433,0.01764 0.05334,0.109361 0.03486,-0.01764 0.02798,0.05115 -0.03168,0.02117 0.06696,0.101953 0.032,-0.02117 0.03376,0.04621 -0.02759,0.0247 0.07885,0.09313 0.02865,-0.02469 0.04068,0.04092 -0.02522,0.02822 0.09013,0.08185 0.02519,-0.02857 0.04575,0.03669 -0.02148,0.03104 0.09962,0.07056 0.02205,-0.0321 0.04893,0.0314 -0.01736,0.03281 0.107457,0.0575 0.01778,-0.03422 0.05306,0.02399 -0.01252,0.03563 0.113277,0.04304 0.01281,-0.03563 0.05651,0.01623 -0.009,0.03739 0.118357,0.02822 0.0088,-0.03739 0.05733,0.01094 -0.0038,0.03739 0.120439,0.01341 0.004,-0.03845 0.05817,0.0035 9.53e-4,0.03775 0.121249,-0.0021 -3.88e-4,-0.03669 0.05772,-0.0063 0.0059,0.0381 0.120438,-0.01729 -0.0054,-0.0381 0.05637,-0.01164 0.01115,0.03669 0.116452,-0.03245 -0.0099,-0.03704 0.05553,-0.01764 0.0146,0.03457 0.111902,-0.04727 -0.01503,-0.03528 0.02702,-0.01129"
       style="fill:#456785;fill-opacity:1;fill-rule:nonzero;stroke:none;stroke-width:0.0352778"
       id="path510" />
    <path
       d="m 58.462661,36.369297 c -0.529166,0.26035 -1.168964,0.04233 -1.429138,-0.48648 -0.260456,-0.52952 -0.04258,-1.169459 0.486587,-1.429809 0.529025,-0.259997 1.168964,-0.04198 1.42942,0.487186 0.260174,0.529167 0.04216,1.168753 -0.486869,1.429103"
       style="fill:#ffffff;fill-opacity:1;fill-rule:nonzero;stroke:none;stroke-width:0.0352778"
       id="path512" />
    <path
       d="m 57.381186,35.804147 -0.274779,0.135114 -0.06752,-0.137231 0.267194,-0.131586 c -0.06946,-0.164394 -0.07246,-0.318911 -0.02699,-0.463197 l 0.148131,0.0441 c -0.03926,0.124531 -0.03902,0.253295 0.02851,0.390525 0.07595,0.154164 0.215688,0.239184 0.369746,0.163336 0.130069,-0.06385 0.155857,-0.153811 0.115323,-0.401813 -0.04561,-0.283634 -0.0139,-0.451909 0.176142,-0.545395 0.173073,-0.08502 0.369711,-0.01305 0.485316,0.174978 l 0.274779,-0.135114 0.06756,0.137231 -0.274673,0.135113 c 0.04798,0.13582 0.04438,0.246945 0.0076,0.372534 L 58.532829,35.4997 c 0.03817,-0.126647 0.02604,-0.232481 -0.0266,-0.339725 -0.06586,-0.133703 -0.17914,-0.201789 -0.301378,-0.141464 -0.110807,0.05433 -0.137548,0.132997 -0.0944,0.391936 0.03817,0.238831 0.03637,0.440267 -0.19872,0.555625 -0.190041,0.09349 -0.391901,0.03881 -0.530542,-0.161925"
       style="fill:#ffca00;fill-opacity:1;fill-rule:nonzero;stroke:none;stroke-width:0.0352778"
       id="path514" />
    <path
       d="m 61.129873,41.654261 -0.0064,-0.0254 0.03387,-0.0099 -0.02857,-0.107245 -0.03281,0.0092 -0.01834,-0.05045 0.03246,-0.01376 -0.04163,-0.102659 -0.03246,0.01305 -0.02293,-0.04798 0.03069,-0.01729 -0.05468,-0.09631 -0.03069,0.01729 -0.02752,-0.04621 0.02681,-0.01976 -0.06632,-0.08925 -0.02752,0.02046 -0.03492,-0.04057 0.0254,-0.02469 -0.07655,-0.08008 -0.02505,0.02434 -0.03916,-0.03598 0.02152,-0.02787 -0.08643,-0.06985 -0.02187,0.02787 -0.04304,-0.0314 0.01799,-0.02999 -0.09455,-0.05856 -0.01799,0.02999 -0.04692,-0.02575 0.01411,-0.03175 -0.100894,-0.04657 -0.01411,0.0314 -0.04974,-0.01834 0.01023,-0.03387 -0.106187,-0.03351 -0.01023,0.03422 -0.05151,-0.01341 0.006,-0.03422 -0.109714,-0.01976 -0.0056,0.03387 -0.05292,-0.0067 0.0014,-0.03422 -0.110773,-0.006 -0.0021,0.03422 -0.05292,0.0014 -0.0032,-0.03528 -0.110878,0.0078 0.003,0.03528 -0.05306,0.0078 -0.0069,-0.03493 -0.109432,0.02187 0.0071,0.03492 -0.05115,0.01305 -0.01072,-0.03281 -0.105975,0.03457 0.01143,0.03387 -0.04974,0.0187 -0.0146,-0.03069 -0.10033,0.04833 0.01446,0.03069 -0.04561,0.02681 -0.01887,-0.02928 -0.09412,0.06033 0.01901,0.02928 -0.04244,0.03175 -0.02205,-0.02716 -0.08544,0.07232 0.02247,0.02681 -0.03902,0.03634 -0.02519,-0.02364 -0.07581,0.0822 0.02565,0.02328 -0.03351,0.04163 -0.02797,-0.02046 -0.06463,0.09102 0.02826,0.01976 -0.02769,0.04551 -0.03143,-0.01729 -0.05264,0.09878 0.03129,0.01658 -0.023,0.04762 -0.03224,-0.0127 -0.04053,0.104775 0.03295,0.01235 -0.01669,0.05045 -0.03362,-0.0088 -0.02632,0.108656 0.03281,0.0085 -0.0079,0.05221 -0.03528,-0.0042 -0.01295,0.110773 0.03471,0.0042 -0.003,0.05256 -0.03486,3.53e-4 8.12e-4,0.111477 h 0.0357 l 0.0022,0.05292 -0.03366,0.0042 0.01517,0.110773 0.03461,-0.0049 0.0038,0.02646 0.0066,0.02611 -0.0339,0.0085 0.02868,0.10795 0.03267,-0.0088 0.01831,0.04974 -0.03305,0.01305 0.04216,0.103717 0.03224,-0.01341 0.02304,0.04763 -0.03034,0.01764 0.05443,0.09701 0.03101,-0.01693 0.02727,0.0448 -0.02713,0.02011 0.06615,0.09031 0.02769,-0.02081 0.03485,0.04022 -0.02533,0.02364 0.07715,0.08114 0.0248,-0.02434 0.03969,0.03563 -0.02244,0.02716 0.0864,0.07056 0.02233,-0.02752 0.04325,0.0314 -0.01845,0.02928 0.09451,0.05891 0.01792,-0.02963 0.04685,0.0254 -0.01418,0.03104 0.101142,0.04763 0.01418,-0.03175 0.04992,0.01834 -0.01048,0.03316 0.106645,0.03387 0.01005,-0.03316 0.0514,0.01305 -0.0061,0.03387 0.109996,0.02046 0.0062,-0.03457 0.05225,0.0067 -0.0018,0.03387 0.111478,0.006 0.0014,-0.03351 0.05327,-0.0014 0.0025,0.03493 0.111125,-0.0081 -0.0028,-0.03492 0.05221,-0.0078 0.0074,0.03457 0.109361,-0.02152 -0.0074,-0.03493 0.0515,-0.0127 0.01129,0.03281 0.106186,-0.03493 -0.01129,-0.03351 0.04868,-0.01905 0.01552,0.03034 0.100894,-0.04762 -0.01517,-0.0314 0.04551,-0.02611 0.0194,0.02893 0.09349,-0.06032 -0.0194,-0.02893 0.04304,-0.0321 0.02222,0.02646 0.08573,-0.07161 -0.02293,-0.02681 0.0388,-0.03598 0.02505,0.02293 0.0762,-0.08114 -0.02611,-0.02399 0.03351,-0.04127 0.02857,0.0194 0.06491,-0.08961 -0.02857,-0.02011 0.02752,-0.04586 0.03104,0.01658 0.05292,-0.09772 -0.03104,-0.01658 0.02293,-0.04833 0.03246,0.01235 0.03986,-0.103364 -0.03281,-0.0127 0.01658,-0.05045 0.03351,0.0081 0.02646,-0.107598 -0.0321,-0.0085 0.0078,-0.05256 0.03493,0.0039 0.01305,-0.110419 -0.03493,-0.0042 0.0028,-0.05256 0.03528,-0.0014 -0.0014,-0.11042 h -0.03493 l -0.0025,-0.05292 0.03387,-0.0049 -0.01552,-0.110066 -0.03457,0.0049 -0.0039,-0.02646"
       style="fill:#456785;fill-opacity:1;fill-rule:nonzero;stroke:none;stroke-width:0.0352778"
       id="path516" />
    <path
       d="m 60.802495,41.719525 c 0.105481,0.528814 -0.237419,1.043164 -0.76588,1.148645 -0.528991,0.10548 -1.04327,-0.237067 -1.148962,-0.765881 -0.105551,-0.528461 0.237454,-1.042811 0.76648,-1.148644 0.528532,-0.105481 1.042529,0.237419 1.148362,0.76588"
       style="fill:#ffffff;fill-opacity:1;fill-rule:nonzero;stroke:none;stroke-width:0.0352778"
       id="path518" />
    <path
       d="m 60.048962,42.542556 0.05468,0.274461 -0.13723,0.02752 -0.05327,-0.267053 c -0.161572,0.02258 -0.298838,-0.01094 -0.415819,-0.08502 l 0.07384,-0.12065 c 0.100894,0.06385 0.21463,0.09419 0.35186,0.06667 0.154164,-0.03104 0.262114,-0.134408 0.23107,-0.288219 -0.02575,-0.130175 -0.09913,-0.173919 -0.328084,-0.196497 -0.261161,-0.02646 -0.402272,-0.09384 -0.440196,-0.283634 -0.03443,-0.172861 0.07511,-0.329847 0.268464,-0.387702 l -0.05486,-0.274814 0.137337,-0.02716 0.05503,0.274461 c 0.13088,-0.01058 0.2286,0.0187 0.330553,0.08079 l -0.07197,0.117475 c -0.102658,-0.0635 -0.199319,-0.07761 -0.306211,-0.05609 -0.133844,0.02681 -0.22038,0.110773 -0.196003,0.232834 0.02219,0.110772 0.0853,0.152752 0.324061,0.175683 0.220134,0.02222 0.397581,0.07126 0.4445,0.306211 0.03775,0.189795 -0.05785,0.355247 -0.267758,0.430742"
       style="fill:#ffca00;fill-opacity:1;fill-rule:nonzero;stroke:none;stroke-width:0.0352778"
       id="path520" />
    <path
       d="m 49.899403,41.497275 c 0.101565,0.03387 0.156704,0.144286 0.122802,0.245886 -0.03376,0.1016 -0.144003,0.156281 -0.245568,0.122767 -0.101565,-0.03387 -0.156704,-0.143933 -0.122943,-0.245533 0.0339,-0.101953 0.144145,-0.156986 0.245709,-0.12312 z m 2.796717,1.341261 c -0.101529,-0.03351 -0.156669,-0.143933 -0.122908,-0.245533 0.0339,-0.1016 0.144145,-0.156633 0.24571,-0.122767 0.101565,0.03387 0.156669,0.143934 0.122767,0.245887 -0.03376,0.101247 -0.144004,0.15628 -0.245569,0.122413 z m 2.518093,-4.262614 -1.318754,2.250017 -0.315595,-0.186267 0.261549,-2.52095 z m -2.115962,1.779764 -1.187062,-0.700264 0.207681,-2.111022 1.228936,0.409575 z m -1.473411,-2.97568 -0.195933,1.990725 -1.027748,-0.606425 0.04904,-1.775884 z m 6.056066,0.390877 -1.668922,-0.555977 -0.535516,0.913341 -5.514764,-1.837619 -0.07648,2.759075 3.753203,2.214739 -0.303142,0.517172 -3.177752,-1.059039 c -0.132856,-0.0441 -0.27686,0.02787 -0.321239,0.160867 -0.0109,0.03281 -0.01446,0.06632 -0.01214,0.09878 -0.288678,0.006 -0.556295,0.188383 -0.652639,0.477308 -0.122343,0.367242 0.07705,0.765528 0.444571,0.887942 0.367241,0.122414 0.765633,-0.07655 0.888012,-0.443795 0.06226,-0.187325 0.04036,-0.382058 -0.04382,-0.544689 l 1.992912,0.664281 c -0.1651,0.07938 -0.299473,0.22225 -0.361738,0.409222 -0.12252,0.367242 0.0769,0.765528 0.444147,0.887942 0.367242,0.122414 0.765634,-0.07655 0.888012,-0.443795 0.06241,-0.187325 0.0405,-0.382058 -0.04385,-0.544688 l 0.185491,0.06174 2.676419,-4.567062 1.278678,0.426156 c 0.132998,0.0441 0.277284,-0.02752 0.321522,-0.160514 0.04424,-0.132997 -0.02797,-0.276931 -0.160972,-0.321381"
       style="fill:#ffffff;fill-opacity:1;fill-rule:nonzero;stroke:none;stroke-width:0.0352778"
       id="path522" />
  </g>
</svg>
